<svg width="27" height="27" fill="none" xmlns="http://www.w3.org/2000/svg"><path d="M13.376 6.416c-3.775 0-6.903 3.074-6.903 6.903a6.882 6.882 0 006.903 6.903c3.829 0 6.903-3.128 6.903-6.903 0-3.775-3.128-6.903-6.903-6.903zm0 11.326c-2.427 0-4.422-1.996-4.422-4.423s1.995-4.422 4.422-4.422c2.427 0 4.422 1.995 4.422 4.422 0 2.427-1.995 4.423-4.422 4.423zM20.548 7.82a1.564 1.564 0 100-3.128 1.564 1.564 0 000 3.128z" fill="#fff"/><path d="M24.593 2.211C23.19.755 21.195 0 18.93 0H7.82C3.128 0 0 3.128 0 7.82v11.056c0 2.32.755 4.314 2.265 5.77 1.456 1.403 3.398 2.104 5.609 2.104h11.002c2.32 0 4.26-.755 5.663-2.103 1.456-1.402 2.211-3.398 2.211-5.717V7.82c0-2.265-.755-4.207-2.157-5.609zm-.216 16.719c0 1.672-.593 3.02-1.564 3.937-.97.917-2.319 1.402-3.937 1.402H7.874c-1.618 0-2.966-.485-3.937-1.402-.97-.97-1.456-2.32-1.456-3.991V7.82c0-1.618.485-2.966 1.456-3.937.917-.917 2.32-1.402 3.937-1.402h11.11c1.618 0 2.966.485 3.937 1.456.917.97 1.456 2.32 1.456 3.883v11.11z" fill="#fff"/></svg>