<svg width="288" height="46" fill="none" xmlns="http://www.w3.org/2000/svg"><path d="M155.199 44.293h1.85v-6.478h3.821V36.12h-5.671v8.173zM165.611 44.413c2.45 0 4.189-1.358 4.189-4.218 0-2.8-1.739-4.195-4.189-4.195-2.449 0-4.188 1.394-4.188 4.195 0 2.86 1.739 4.218 4.188 4.218zm0-1.61c-1.469 0-2.302-.986-2.302-2.608 0-1.635.833-2.584 2.302-2.584 1.47 0 2.303.95 2.303 2.584 0 1.622-.833 2.608-2.303 2.608zM171.298 44.293h1.849v-2.752h1.813c1.935 0 3.123-.853 3.123-2.704 0-1.9-1.188-2.717-3.037-2.717h-3.748v8.173zm1.849-4.315v-2.295h1.678c.98 0 1.372.336 1.372 1.154 0 .769-.392 1.141-1.372 1.141h-1.678zM178.228 46h1.764v-1.707h5.67V46h1.776v-3.401h-1.2V36.12h-6.246c0 .529 0 3.642-.012 3.99-.025 1.058-.38 2.044-.907 2.489h-.845V46zm3.515-5.697c.012-.313.049-2.2.049-2.488h2.597v4.784h-3.319c.44-.625.636-1.383.673-2.296zM192.594 42.358l2.853-6.238h-1.898l-1.935 4.387-2.095-4.387h-2.082l3.185 6.178c-.257.24-.588.325-1.151.325h-.723v1.67h.967c1.617 0 2.229-.505 2.879-1.935zM200.298 43.536h1.604l2.156-4.988v5.745h1.8V36.12h-2.474l-2.217 5.24-2.229-5.24h-2.523v8.173h1.727v-5.685l2.156 4.928zM207.682 36.12v8.173h3.686c1.85 0 3.05-.83 3.05-2.656 0-1.947-1.188-2.728-3.123-2.728h-1.764V36.12h-1.849zm7.753 8.173h1.849V36.12h-1.849v8.173zm-4.275-1.586h-1.629v-2.212h1.629c.98 0 1.372.337 1.372 1.106 0 .805-.38 1.106-1.372 1.106zM223.159 38.284V36.12h-1.849v2.416c0 2.115.845 2.933 3.221 2.933.71 0 1.371-.084 1.861-.169v2.993h1.85V36.12h-1.85v3.582a8.34 8.34 0 01-1.494.12c-1.261 0-1.739-.409-1.739-1.538zM230.084 44.293h6.001V42.72h-4.152v-1.767h4.017v-1.526h-4.017v-1.731h4.189V36.12h-6.038v8.173zM237.727 44.293h3.845c1.85 0 2.927-.733 2.927-2.56s-1.053-2.44-2.963-2.44h-1.96v-1.55h4.36V36.12h-6.209v8.173zm3.662-3.437c.894 0 1.286.24 1.286.925s-.38.95-1.286.95h-1.813v-1.875h1.813zM249.777 44.413c2.45 0 4.189-1.358 4.189-4.218 0-2.8-1.739-4.195-4.189-4.195-2.449 0-4.188 1.394-4.188 4.195 0 2.86 1.739 4.218 4.188 4.218zm0-1.61c-1.47 0-2.302-.986-2.302-2.608 0-1.635.832-2.584 2.302-2.584 1.47 0 2.303.95 2.303 2.584 0 1.622-.833 2.608-2.303 2.608zM255.464 44.293h1.849v-3.269h.992l2.34 3.27h2.241l-3.074-4.195 2.988-3.979h-2.168l-2.327 3.221h-.992v-3.22h-1.849v8.172zM267.308 42.803c-1.31 0-2.168-.938-2.168-2.596 0-1.683.882-2.596 2.193-2.596 1.139 0 1.702.6 1.935 1.43l1.849-.289c-.331-1.742-1.531-2.752-3.784-2.752-2.364 0-4.067 1.346-4.067 4.207 0 2.776 1.617 4.206 4.054 4.206 2.254 0 3.454-.973 3.809-2.764l-1.849-.3c-.208.877-.784 1.454-1.972 1.454zM277.091 36.12h-2.437l-3.05 8.173h1.911l.661-1.887h3.344l.674 1.887h1.959l-3.062-8.173zm-2.339 4.676l1.09-3.09 1.102 3.09h-2.192zM281.215 44.293h1.849v-2.752h1.813c1.935 0 3.123-.853 3.123-2.704 0-1.9-1.188-2.717-3.037-2.717h-3.748v8.173zm1.849-4.315v-2.295h1.678c.98 0 1.372.336 1.372 1.154 0 .769-.392 1.141-1.372 1.141h-1.678z" fill="#2F2A95"/><path d="M0 44.293h1.85v-3.269h.991l2.34 3.27h2.241l-3.074-4.195 2.988-3.979H5.168l-2.327 3.221H1.85v-3.22H0v8.172zM13.04 36.12h-2.438l-3.05 8.173h1.912l.66-1.887h3.345l.673 1.887h1.96L13.04 36.12zm-2.34 4.676l1.09-3.09 1.103 3.09H10.7zM17.163 44.293h1.85v-3.269H22.6v3.27h1.85V36.12H22.6v3.21h-3.588v-3.21h-1.85v8.173zM25.48 46h1.764v-1.707h5.671V46h1.776v-3.401h-1.2V36.12h-6.247c0 .53 0 3.642-.012 3.99-.024 1.058-.38 2.044-.906 2.489h-.845V46zm3.516-5.697c.012-.313.049-2.2.049-2.488h2.596v4.784h-3.319c.441-.625.637-1.383.674-2.296zM41.518 44.293h1.837V36.12h-1.91l-3.822 5.553V36.12h-1.837v8.173h1.886l3.846-5.553v5.553zM44.378 46h1.764v-1.707h5.67V46h1.777v-3.401h-1.2V36.12h-6.247c0 .53 0 3.642-.012 3.99-.025 1.058-.38 2.044-.907 2.489h-.845V46zm3.515-5.697c.013-.313.05-2.2.05-2.488h2.596v4.784h-3.32c.442-.625.638-1.383.674-2.296zM59.399 36.12H56.96l-3.05 8.173h1.911l.662-1.887h3.343l.674 1.887h1.96l-3.062-8.173zm-2.34 4.676l1.09-3.09 1.103 3.09h-2.193zM61.952 37.815h2.829v6.478h1.849v-6.478h2.817V36.12h-7.495v1.695zM72.983 44.293h3.895c1.96 0 3-.733 3-2.235 0-.95-.404-1.659-1.53-1.911.98-.325 1.297-1.058 1.297-1.78 0-1.55-1.04-2.247-2.792-2.247h-3.87v8.173zm3.613-6.67c.882 0 1.188.276 1.188.877 0 .613-.306.938-1.213.938H74.82v-1.815h1.776zm.061 3.28c.968 0 1.323.29 1.323.938 0 .65-.343.95-1.31.95h-1.85v-1.887h1.837zM82.987 46h1.764v-1.707h5.67V46h1.776v-3.401h-1.2V36.12H84.75c0 .53 0 3.642-.013 3.99-.024 1.058-.38 2.044-.906 2.489h-.845V46zm3.515-5.697c.012-.313.049-2.2.049-2.488h2.596v4.784h-3.319c.441-.625.637-1.383.674-2.296zM93.292 44.293h6.001V42.72h-4.152v-1.767h4.017v-1.526h-4.017v-1.731h4.189V36.12h-6.038v8.173zM100.935 44.293h1.849v-6.478h3.625v6.478h1.837V36.12h-7.311v8.173zM114.42 42.358l2.854-6.238h-1.899l-1.935 4.387-2.094-4.387h-2.082l3.184 6.178c-.257.24-.588.325-1.151.325h-.723v1.67h.968c1.616 0 2.229-.505 2.878-1.935zM117.568 37.815h2.829v6.478h1.849v-6.478h2.817V36.12h-7.495v1.695zM130.049 36.12h-2.437l-3.05 8.173h1.911l.661-1.887h3.344l.673 1.887h1.96l-3.062-8.173zm-2.339 4.676l1.09-3.09 1.102 3.09h-2.192zM132.602 37.815h2.829v6.478h1.85v-6.478h2.817V36.12h-7.496v1.695zM141.265 36.12v8.173h3.687c1.849 0 3.049-.829 3.049-2.656 0-1.947-1.188-2.728-3.123-2.728h-1.763V36.12h-1.85zm7.753 8.173h1.849V36.12h-1.849v8.173zm-4.274-1.586h-1.629v-2.212h1.629c.979 0 1.371.337 1.371 1.106 0 .805-.379 1.106-1.371 1.106z" fill="#F8485E"/><path d="M276.702 24.95c-5.51 0-7.775-4.005-7.775-10.95 0-7 2.265-10.95 7.775-10.95 5.537 0 7.774 3.95 7.774 10.95-.028 6.973-2.237 10.95-7.774 10.95zm0 3.05C284.672 28 288 23.07 288 14c0-8.88-3.328-14-11.298-14-7.915 0-11.299 5.12-11.299 14 0 9.07 3.384 14 11.299 14zM257.181 8.335c0 3.84-2.825 5.91-6.908 8.77l-9.648 6.755v3.759h20.667v-3.187h-16.249l7.3-5.066c4.754-3.323 8.39-5.883 8.39-11.004 0-4.767-3.524-8.308-9.621-8.308-6.125 0-10.096 3.65-10.935 8.77l3.244.6c.867-3.868 3.524-6.319 7.635-6.319 4.055-.054 6.125 2.288 6.125 5.23zm-32.386 16.614c-5.509 0-7.774-4.004-7.774-10.949 0-7 2.265-10.95 7.774-10.95 5.538 0 7.775 3.95 7.775 10.95-.028 6.973-2.237 10.95-7.775 10.95zm0 3.051c7.971 0 11.299-4.93 11.299-14 0-8.88-3.328-14-11.299-14-7.914 0-11.298 5.12-11.298 14 0 9.07 3.356 14 11.298 14zm-19.52-19.665c0 3.84-2.825 5.91-6.908 8.77l-9.648 6.755v3.759h20.667v-3.187h-16.249l7.3-5.066c4.754-3.323 8.39-5.883 8.39-11.004 0-4.767-3.524-8.308-9.621-8.308-6.125 0-10.096 3.65-10.935 8.77l3.244.6c.867-3.868 3.524-6.319 7.635-6.319 4.055-.054 6.125 2.288 6.125 5.23zm-68.77 19.256h3.524v-12.12h15.437v12.12h3.524V.41h-3.496v11.875h-15.437V.409h-3.524V27.59h-.028zm-10.18 0h3.44V.41h-4.307L110.3 23.397V.409h-3.44v27.21h4.028l15.437-23.316v23.288zm-45.082 0h3.524V15.444h5.146l8.446 12.147h4.446l-9.984-13.809 9.537-13.4h-4.307L89.996 12.23h-5.201V.409H81.27V27.59h-.028zM57.555 7.953V.41h-3.524v8.28c0 5.91 3.049 8.443 9.621 8.443 2.992 0 5.425-.408 7.355-.844v11.358h3.524V.436h-3.524v12.72c-2.21.517-4.475.762-7.187.762-4.643 0-6.265-1.88-6.265-5.965zm-20.89 16.915c-6.293 0-9.845-4.331-9.845-10.868 0-6.591 3.58-10.868 9.844-10.868C42.93 3.132 46.48 7.41 46.48 14c0 6.564-3.523 10.868-9.816 10.868zm0 3.132c8.138 0 13.34-5.202 13.34-14 0-8.607-5.203-14-13.34-14-8.14 0-13.397 5.393-13.397 14 .028 8.798 5.286 14 13.396 14zM0 27.591h3.524V15.444H8.67l8.446 12.147h4.446l-9.984-13.809 9.537-13.4h-4.307L8.754 12.23H3.552V.409H.028V27.59H0z" fill="#2F2A95"/><path d="M174.763 5.338L165.869 14l8.894 8.662L183.656 14l-8.893-8.662zm0 12.72L170.623 14l4.14-4.031L178.902 14l-4.139 4.058z" fill="#F8485E"/></svg>