<svg width="15" height="25" fill="none" xmlns="http://www.w3.org/2000/svg"><path fill-rule="evenodd" clip-rule="evenodd" d="M6.27 16.856c-1.936-.197-3.682-.658-5.177-1.789-.185-.141-.377-.276-.547-.434-.654-.607-.72-1.305-.202-2.022.444-.614 1.187-.779 1.96-.425.15.067.291.153.429.245 2.786 1.852 6.612 1.904 9.41.082.276-.205.572-.372.916-.458.667-.165 1.29.072 1.647.637.41.645.404 1.275-.1 1.775-.774.769-1.704 1.325-2.737 1.713-.976.366-2.046.55-3.107.673.16.169.236.25.335.349 1.438 1.397 2.884 2.791 4.318 4.194.488.477.59 1.07.321 1.626-.293.608-.952 1.008-1.597.965-.41-.027-.729-.225-1.013-.5-1.085-1.057-2.19-2.095-3.253-3.172-.31-.313-.46-.254-.732.018a218.3 218.3 0 01-3.319 3.224c-.5.479-1.097.564-1.678.291-.619-.29-1.013-.9-.982-1.514.022-.415.233-.732.527-1.016 1.423-1.375 2.843-2.755 4.262-4.132.095-.091.183-.189.319-.33z" fill="#fff"/><path fill-rule="evenodd" clip-rule="evenodd" d="M7.455 12C4.172 11.99 1.48 9.273 1.5 5.989A6.013 6.013 0 017.527.001c3.322.008 5.988 2.722 5.972 6.077-.017 3.278-2.727 5.934-6.044 5.923zm2.984-6.004a2.924 2.924 0 00-2.936-2.93A2.929 2.929 0 004.562 6.03a2.925 2.925 0 002.957 2.907 2.919 2.919 0 002.92-2.942z" fill="#fff"/></svg>