<svg width="32" height="32" fill="none" xmlns="http://www.w3.org/2000/svg"><mask id="a" fill="#fff"><path fill-rule="evenodd" clip-rule="evenodd" d="M1.07 14.539L11 20 29.463 9.383A14.939 14.939 0 0131 16c0 8.284-6.715 15-15 15-8.284 0-15-6.716-15-15 0-.493.024-.98.07-1.461z"/></mask><path d="M11 20l-.965 1.752.986.543.975-.561L11 20zm-9.93-5.461l.963-1.753-2.662-1.464-.292 3.024 1.99.193zm28.394-5.156l1.795-.884-.942-1.913-1.85 1.063.997 1.734zm-17.5 8.864l-9.93-5.46L.105 16.29l9.93 5.461 1.927-3.505zM28.466 7.65L10.002 18.266l1.994 3.468 18.465-10.618-1.994-3.467zm-.797 2.617A12.938 12.938 0 0129 16h4a16.94 16.94 0 00-1.741-7.5l-3.589 1.766zM29 16c0 7.18-5.821 13-13 13v4c9.388 0 17-7.611 17-17h-4zM16 29C8.82 29 3 23.18 3 16h-4c0 9.389 7.61 17 17 17v-4zM3 16c0-.429.02-.852.06-1.269l-3.981-.385A17.18 17.18 0 00-1.001 16h4z" fill="#F8485E" mask="url(#a)"/><mask id="b" maskUnits="userSpaceOnUse" x="0" y="1" width="31" height="30"><circle cx="15.999" cy="16" fill="#C4C4C4" r="15"/></mask><g mask="url(#b)" stroke="#F8485E" stroke-width="2"><path d="M1 11l10 5.5L31 5"/><path d="M2 7l9 5L31 .5"/><path d="M2 2.5l9 5L31-4"/></g></svg>