<svg width="24" height="24" fill="none" xmlns="http://www.w3.org/2000/svg"><path fill-rule="evenodd" clip-rule="evenodd" d="M16.788 19.834a.892.892 0 00.83.11.87.87 0 00.543-.63c.652-3.064 2.233-10.817 2.826-13.603a.586.586 0 00-.195-.568.6.6 0 00-.598-.105C17.05 6.202 7.365 9.835 3.407 11.3a.62.62 0 00-.407.6.621.621 0 00.445.572c1.775.531 4.105 1.27 4.105 1.27s1.09 3.289 1.657 4.961c.071.21.236.375.452.432a.65.65 0 00.609-.155l2.322-2.192s2.678 1.964 4.198 3.046zm-8.257-6.507L9.79 17.48l.28-2.63 7.638-6.89a.208.208 0 00.025-.282.213.213 0 00-.282-.048c-3.215 2.052-8.92 5.697-8.92 5.697z" fill="#fff"/></svg>