<svg width="22" height="22" fill="none" xmlns="http://www.w3.org/2000/svg"><path fill-rule="evenodd" clip-rule="evenodd" d="M21.714 8.52C20.794 3.507 16.497.143 11.265.001h-.088a3.116 3.116 0 00-.216 0c-.37.02-.7.32-.63.698.079.425.52.468.883.504l.063.006c.184.019.369.034.553.05.409.034.818.068 1.22.138 3.879.67 6.986 3.794 7.528 7.57.082.57.122 1.147.163 1.723l.03.438c.028.364.217.704.636.7.406-.006.62-.352.59-.716l-.026-.32c-.06-.762-.12-1.525-.257-2.274zM17.01 21.885c.136.036.275.073.415.114.12-.036.242-.066.364-.096.263-.064.523-.129.753-.248 1.191-.62 2.017-1.591 2.584-2.758.31-.637.12-1.254-.43-1.723-.533-.455-1.105-.85-1.683-1.248l-.128-.088a42.584 42.584 0 00-1.924-1.27c-.656-.403-1.434-.396-2.043.086-.22.174-.397.405-.575.634-.326.421-.65.84-1.224.905-.484.055-.91-.12-1.332-.292l-.123-.05c-2.88-1.16-4.634-3.316-5.675-6.088-.135-.36-.125-.75.085-1.082.115-.18.273-.316.44-.45l.113-.09c.153-.123.306-.247.47-.356.845-.555.973-1.553.507-2.37C6.846 4.09 5.91 2.885 4.893 1.74c-.472-.53-1.108-.703-1.753-.403-.826.385-1.59.907-2.182 1.589-.632.726-1.232 1.723-.825 2.687l.139.328c.4.95.8 1.9 1.267 2.819 1.097 2.16 2.394 4.201 4.052 6.01 2.916 3.179 6.597 5.253 10.597 6.86.261.106.536.18.822.256zM19.22 9.99l-.006.063a1.666 1.666 0 01-.045.289c-.139.509-.935.573-1.119.059a1.487 1.487 0 01-.062-.49c-.002-1.073-.243-2.146-.802-3.08a5.844 5.844 0 00-2.481-2.255 7.307 7.307 0 00-1.978-.588c-.185-.03-.372-.053-.559-.075-.113-.014-.226-.027-.34-.043-.363-.049-.556-.273-.54-.62.017-.324.262-.558.627-.538 1.2.066 2.36.318 3.428.865 2.17 1.114 3.41 2.872 3.772 5.22l.02.113c.013.068.026.136.031.205.014.185.025.37.037.585l.017.29zm-3.974-.74c.045.389.28.623.717.616a.515.515 0 00.468-.415c.036-.15.02-.317.007-.476l-.002-.016c-.207-2.313-1.656-3.33-3.684-3.471-.325-.023-.614.202-.664.49-.054.316.138.589.486.671.15.036.303.05.456.063.174.015.348.03.519.079.252.07.494.18.707.33.45.318.736.8.867 1.32.058.226.084.461.11.695l.013.114z" fill="#fff"/></svg>