<svg width="27" height="15" fill="none" xmlns="http://www.w3.org/2000/svg"><path d="M26.112 13.546a2.024 2.024 0 00-.09-.171c-.455-.822-1.325-1.83-2.61-3.025l-.027-.028-.013-.012-.014-.016h-.015c-.582-.556-.95-.93-1.106-1.122-.282-.365-.346-.734-.191-1.109.109-.282.519-.88 1.23-1.792.374-.484.669-.871.887-1.163 1.577-2.1 2.26-3.441 2.05-4.025l-.08-.137c-.055-.081-.196-.158-.423-.225-.229-.069-.52-.08-.875-.035l-3.938.027a.51.51 0 00-.272.008l-.178.041-.069.034-.053.041a.606.606 0 00-.15.144.941.941 0 00-.138.239 22.356 22.356 0 01-1.462 3.08 29.087 29.087 0 01-.93 1.472c-.212.324-.449.63-.71.916-.162.17-.336.328-.52.473-.154.119-.273.169-.355.15a9.904 9.904 0 01-.233-.054.908.908 0 01-.307-.336 1.5 1.5 0 01-.156-.534 5.834 5.834 0 01-.05-.554 11.44 11.44 0 01.008-.657c.009-.283.013-.475.013-.575 0-.346.007-.724.021-1.129l.034-.965c.01-.237.013-.489.013-.754a3.122 3.122 0 00-.047-.622 2.119 2.119 0 00-.144-.438.737.737 0 00-.28-.328 1.579 1.579 0 00-.457-.185C13.992.07 13.377.01 12.63.002 10.935-.017 9.846.093 9.363.33a1.838 1.838 0 00-.52.41c-.162.2-.187.31-.067.33.546.08.934.277 1.161.587l.083.165c.062.119.127.329.191.63.063.3.105.634.123.999.045.666.045 1.237 0 1.711-.045.475-.088.844-.13 1.109a2.223 2.223 0 01-.35.944.235.235 0 01-.067.068 1.023 1.023 0 01-.37.069c-.127 0-.282-.064-.463-.191a3.28 3.28 0 01-.568-.528 7.045 7.045 0 01-.662-.937 16.447 16.447 0 01-.767-1.424l-.218-.397a36.55 36.55 0 01-.56-1.115 21.309 21.309 0 01-.63-1.418.902.902 0 00-.327-.437L5.153.863a.935.935 0 00-.218-.116A1.45 1.45 0 004.62.658L.876.686c-.383 0-.642.087-.779.26l-.055.082a.444.444 0 00-.041.219c0 .1.028.224.083.369A45.244 45.244 0 001.866 5.34c.643 1.195 1.2 2.158 1.675 2.887.457.707.94 1.396 1.448 2.067.49.648.817 1.063.976 1.247.16.182.285.319.376.41l.343.329c.218.218.538.48.962.787.425.305.894.606 1.409.904a7.645 7.645 0 001.796.725 6.17 6.17 0 001.996.225h1.572c.318-.026.56-.128.724-.3l.054-.069a.912.912 0 00.103-.254c.032-.112.047-.239.047-.375a4.517 4.517 0 01.089-1.062c.069-.314.146-.552.234-.712a1.75 1.75 0 01.525-.602.932.932 0 01.11-.048c.218-.072.475-.002.772.213.296.215.574.479.834.794.26.315.571.668.936 1.061.364.393.683.684.956.875l.274.165c.183.11.419.21.71.301s.547.114.767.069l3.498-.055c.345 0 .615-.058.806-.171.192-.114.305-.24.342-.377.036-.152.038-.312.006-.466a1.706 1.706 0 00-.094-.362z" fill="#fff"/></svg>