<svg width="26" height="27" fill="none" xmlns="http://www.w3.org/2000/svg"><path fill-rule="evenodd" clip-rule="evenodd" d="M10.06 6.66a.438.438 0 00-.095.02c-.966.293-1.65.811-2.019 1.486-.37.675-.416 1.467-.257 2.27.317 1.608 1.442 3.336 2.865 4.775 1.423 1.44 3.139 2.59 4.775 2.926.819.168 1.633.124 2.337-.24.704-.365 1.264-1.045 1.612-2.016a.424.424 0 00-.176-.502l-3.089-1.916-.006-.006a.434.434 0 00-.048-.027.434.434 0 00-.149-.06h-.013a.432.432 0 00-.034-.007h-.007a.439.439 0 00-.278.08.438.438 0 00-.04.027.443.443 0 00-.014.02.437.437 0 00-.047.047l-1.067 1.141c-1.228-.611-2.173-1.636-3.021-3.02l1.012-1.074a.412.412 0 00.034-.034.428.428 0 00.027-.026v-.007a.457.457 0 00.027-.027v-.006a.545.545 0 00.014-.02.423.423 0 00.014-.014.404.404 0 00.013-.033v-.007l.007-.013a.449.449 0 00.014-.027.422.422 0 00.006-.034v-.006a.422.422 0 00.007-.04v-.007-.04a.372.372 0 00-.007-.08v-.007a.422.422 0 00-.027-.074v-.006a.432.432 0 00-.027-.054l-.007-.013-.007-.007-1.93-3.134a.43.43 0 00-.359-.207c-.014 0-.027-.002-.04-.001z" fill="#fff"/><path fill-rule="evenodd" clip-rule="evenodd" d="M4.626 19.567l-1.13 3.73 3.788-1.408.891.445A10.767 10.767 0 0013 23.464c5.923 0 10.725-4.749 10.725-10.607S18.923 2.25 13 2.25 2.275 7 2.275 12.857c0 2.159.65 4.16 1.765 5.833l.586.877zM0 27l2.141-7.071a12.697 12.697 0 01-2.14-7.072C0 5.757 5.82 0 13 0 20.18 0 26 5.756 26 12.857c0 7.101-5.82 12.857-13 12.857-2.104 0-4.092-.494-5.85-1.372L0 27z" fill="#fff"/></svg>